<svg width="310" height="379" viewBox="0 0 310 379" fill="none" xmlns="http://www.w3.org/2000/svg">
<path d="M246 193C243.925 192.34 242.392 192.428 240.167 192.722C227.115 194.45 214.259 198.214 201.5 201.278C173.221 208.068 144.843 214.467 116.333 220.222C91.8244 225.17 62.6114 233.743 37.2222 229.222C2.92735 223.116 -0.0512185 177.234 2.66667 150.056C3.21294 144.593 14.0863 76.8522 29 89.1111C41.7604 99.6001 47.9284 120.632 52.4444 134.944C71.8518 196.452 84.4221 260.98 93.7778 324.722C96.2244 341.391 97.6827 357.903 98.7778 374.667C98.8311 375.483 98.9422 377.927 99 377.111C99.6544 367.876 99.512 367.108 100.778 355.444C111.967 252.345 133.254 149.564 167.722 51.6667C173.338 35.7158 179.326 19.4194 186.667 4.11111C187.886 1.56878 188.11 1.84862 187.444 4.22222C186.579 7.30535 183.78 15.5174 183 18" stroke="black" stroke-width="3" stroke-linecap="round"/>
<path d="M123 283C128.16 277.84 132.488 291.508 136.5 288.833C138.373 287.585 139.383 285 141.389 283.611C143.004 282.493 144.034 284.799 145.778 285C148.601 285.326 148.866 287.878 150.667 283.333C154.115 274.631 156 264.996 158.167 255.944C163.904 231.97 169.195 207.863 174.444 183.778C180.97 153.835 187.595 123.391 188.889 92.6667C188.982 90.4461 189 83.7775 189 86" stroke="black" stroke-width="3" stroke-linecap="round"/>
<path d="M167 276C167.42 279.36 170.321 271.498 169.556 277.111C168.636 283.858 175.107 282.01 178.556 279.389C183.831 275.379 203.197 273.197 208 278" stroke="black" stroke-width="3" stroke-linecap="round"/>
<path d="M205 280C210.423 278.827 215.543 277.541 220.889 276.056C223.333 275.377 226.952 272.203 226.667 272.556C219.016 282.018 211.608 291.532 205.722 302.222C205.297 302.994 198.167 317.479 199.222 312.556C202.808 295.822 217.794 277.362 235.667 277C244.473 276.821 252.985 277.212 261.611 275.056C264.225 274.402 266.343 274 269 274" stroke="black" stroke-width="3" stroke-linecap="round"/>
<path d="M308 286V285" stroke="black" stroke-width="3" stroke-linecap="round"/>
</svg>
